<svg width="489" height="361" viewBox="0 0 489 361" fill="none" xmlns="http://www.w3.org/2000/svg">
<path d="M347.096 264.773H83.7629C81.4166 264.77 79.1671 263.838 77.508 262.181C75.8488 260.524 74.9156 258.278 74.9128 255.934V41.801C74.9156 39.4579 75.8488 37.2114 77.508 35.5545C79.1671 33.8976 81.4166 32.9656 83.7629 32.9629H347.096C349.442 32.9656 351.692 33.8976 353.351 35.5545C355.01 37.2114 355.943 39.4579 355.946 41.801V255.934C355.943 258.278 355.01 260.524 353.351 262.181C351.692 263.838 349.442 264.77 347.096 264.773Z" fill="#E6E6E6"/>
<path d="M89.7337 39.2537C87.4736 39.2563 85.3067 40.1541 83.7086 41.7502C82.1104 43.3462 81.2115 45.5102 81.2089 47.7674V249.973C81.2116 252.23 82.1106 254.394 83.7087 255.99C85.3069 257.586 87.4737 258.484 89.7337 258.486H269.975C291.099 258.462 311.351 250.072 326.288 235.155C341.225 220.238 349.628 200.013 349.651 178.917V47.7674C349.649 45.5102 348.75 43.3463 347.152 41.7502C345.554 40.1541 343.387 39.2563 341.127 39.2537L89.7337 39.2537Z" fill="white"/>
<path d="M299.077 130.195H251.328C250.333 130.194 249.378 129.798 248.674 129.095C247.969 128.391 247.573 127.438 247.572 126.443V102.71C247.573 101.716 247.969 100.762 248.674 100.059C249.378 99.3556 250.333 98.96 251.328 98.9589H299.077C300.073 98.96 301.028 99.3556 301.732 100.059C302.436 100.762 302.832 101.716 302.833 102.71C305.788 111.109 306.207 119.089 302.833 126.444C302.832 127.438 302.436 128.392 301.732 129.095C301.028 129.798 300.073 130.194 299.077 130.195Z" fill="#E6E6E6"/>
<path d="M293.42 127.901H252.853C252.007 127.9 251.196 127.564 250.597 126.966C249.999 126.369 249.663 125.559 249.662 124.714V104.55C249.663 103.705 249.999 102.895 250.597 102.297C251.196 101.7 252.007 101.364 252.853 101.363H293.42C294.266 101.364 295.078 101.7 295.676 102.297C296.274 102.895 296.611 103.705 296.612 104.55C299.349 111.731 299.79 118.526 296.612 124.714C296.611 125.559 296.274 126.369 295.676 126.966C295.078 127.564 294.266 127.9 293.42 127.901Z" fill="white"/>
<path d="M291.233 142.627H259.067C258.121 142.628 257.213 142.254 256.543 141.587C255.873 140.92 255.495 140.015 255.493 139.07C255.492 138.125 255.866 137.218 256.533 136.548C257.201 135.879 258.108 135.501 259.054 135.499H291.233C292.178 135.501 293.084 135.877 293.752 136.546C294.419 137.214 294.794 138.119 294.794 139.063C294.794 140.007 294.419 140.913 293.752 141.581C293.084 142.249 292.178 142.625 291.233 142.627Z" fill="#E6E6E6"/>
<path d="M269.606 106.808C269.236 106.809 268.881 106.956 268.62 107.218C268.358 107.479 268.211 107.834 268.21 108.203V123.309C268.21 123.553 268.275 123.793 268.396 124.004C268.518 124.216 268.693 124.392 268.905 124.514C269.116 124.637 269.356 124.702 269.6 124.703C269.844 124.704 270.084 124.641 270.297 124.52L283.648 116.917C283.863 116.795 284.041 116.619 284.165 116.405C284.289 116.192 284.353 115.95 284.353 115.703C284.352 115.456 284.286 115.214 284.161 115.002C284.036 114.789 283.857 114.613 283.641 114.493L270.291 106.988C270.082 106.87 269.846 106.808 269.606 106.808Z" fill="#E6E6E6"/>
<path d="M464.395 332.098C463.658 331.163 462.658 330.469 461.524 330.107C460.389 329.745 459.172 329.73 458.029 330.066L457.779 330.14L455.537 338.88C455.201 337.578 454.482 334.637 454.029 331.758L453.99 331.52L453.768 331.618C451.424 332.652 449.221 333.979 447.21 335.565C443.648 338.418 440.751 342.012 438.72 346.097C436.69 350.181 435.574 354.658 435.451 359.217L435.447 359.384L435.443 359.49L435.74 359.384L442.11 357.11C444.93 357.359 447.77 356.975 450.423 355.987C453.076 354.999 455.474 353.432 457.443 351.4C460.017 348.69 461.782 345.203 463.489 341.829C463.989 340.846 464.5 339.832 465.024 338.857C465.607 337.797 465.86 336.586 465.747 335.381C465.635 334.176 465.164 333.032 464.395 332.098Z" fill="#F2F2F2"/>
<path d="M301.724 109.2C301.852 109.862 302.123 110.487 302.519 111.033C302.915 111.578 303.427 112.03 304.017 112.357C304.607 112.684 305.261 112.878 305.934 112.925C306.608 112.972 307.283 112.871 307.913 112.629L326.95 134.746L329.361 126.581L310.486 106.347C310.009 105.317 309.171 104.498 308.129 104.044C307.088 103.591 305.916 103.534 304.836 103.886C303.756 104.238 302.842 104.973 302.269 105.952C301.695 106.932 301.501 108.087 301.724 109.2L301.724 109.2Z" fill="#FFB8B8"/>
<path d="M378.45 354.097H372.15L369.153 329.828H378.452L378.45 354.097Z" fill="#FFB6B6"/>
<path d="M378.282 352.042L371.556 349.31L371.363 349.231L367.649 352.042C365.552 352.042 363.541 352.874 362.058 354.355C360.575 355.836 359.742 357.844 359.742 359.939V360.195H380.055V352.042H378.282Z" fill="#2F2E41"/>
<path d="M423.395 354.097H417.094L414.097 329.828H423.396L423.395 354.097Z" fill="#FFB6B6"/>
<path d="M423.226 352.042L416.5 349.31L416.307 349.231L412.593 352.042C410.496 352.042 408.485 352.874 407.002 354.355C405.519 355.836 404.686 357.844 404.686 359.939V360.195H425V352.042H423.226Z" fill="#2F2E41"/>
<path d="M408.525 209.176C408.525 209.176 416.427 217.386 416.427 224.132C416.427 230.878 414.452 240.141 416.427 242.168C418.403 244.195 420.872 246.661 417.909 249.621C414.946 252.58 413.464 254.06 415.44 256.033C417.415 258.005 416.427 292.531 416.427 292.531L426.799 338.895H413.732L397.166 292.531L392.721 254.06L378.345 291.052L379.932 339.293L366.272 338.895L360.618 287.599C360.618 287.599 369.014 238.804 367.532 237.554C366.05 236.303 367.532 233.779 367.532 233.779L371.483 215.095L408.525 209.176Z" fill="#2F2E41"/>
<path d="M393.053 150.965C393.053 150.965 395.74 140.391 383.361 137.36C370.982 134.328 335.596 130.433 335.596 130.433L317.714 111.483L311.654 120.271L331.701 145.15L379.202 154.893L393.053 150.965Z" fill="#3F3D56"/>
<path d="M314.599 119.623C315.155 118.905 315.589 118.101 315.886 117.243L318.45 110.95L317.785 110.922C316.863 110.749 315.916 110.772 315.004 110.99C314.093 111.208 313.238 111.616 312.495 112.188C311.752 112.759 311.139 113.48 310.695 114.305C310.251 115.129 309.987 116.038 309.919 116.972C309.835 117.779 309.98 118.594 310.338 119.323C310.52 119.685 310.786 119.998 311.113 120.237C311.439 120.477 311.818 120.635 312.218 120.7C312.672 120.724 313.126 120.639 313.54 120.452C313.955 120.264 314.318 119.98 314.599 119.623Z" fill="#E6E6E6"/>
<path d="M368.961 217.614L367.48 228.341C367.48 228.341 370.443 231.519 371.925 231.122C373.406 230.724 378.839 228.412 378.839 228.412C378.839 228.412 385.26 231.916 388.717 232.313C392.174 232.711 410.448 230.327 410.942 229.135C411.436 227.943 417.176 223.278 417.176 223.278L414.893 209.669L368.961 217.614Z" fill="#E6E6E6"/>
<path d="M417.081 180.09C417.081 180.09 415.827 190.433 416.814 191.385C417.802 192.332 415.827 198.325 413.851 202.271C411.876 206.217 415.333 206.71 415.333 209.669C415.333 212.629 416.814 223.48 416.814 223.48C416.814 223.48 401.504 224.466 399.034 222C396.565 219.534 392.614 221.507 387.181 226.932C381.748 232.358 369.949 227.919 367.48 225.452C365.01 222.986 369.401 214.108 370.882 212.387C372.364 210.665 369.455 212.658 367.973 207.203C366.492 201.748 369.401 202.271 371.87 199.805C374.34 197.338 371.87 192.899 369.895 188.46C367.919 184.021 369.401 150.975 369.401 143.083C369.401 135.192 380.266 134.205 380.266 134.205L384.568 128.804L387.729 124.834L393.922 124.587L394.085 124.582L400.076 124.341L402.985 127.724L409.406 135.192L416.814 136.671C422.741 138.644 421.259 150.975 421.259 150.975L417.081 180.09Z" fill="#3F3D56"/>
<path d="M393.617 122.448C400.629 122.448 406.313 116.771 406.313 109.769C406.313 102.767 400.629 97.0906 393.617 97.0906C386.605 97.0906 380.921 102.767 380.921 109.769C380.921 116.771 386.605 122.448 393.617 122.448Z" fill="#FFB6B6"/>
<path d="M408.337 105.504C404.845 103.366 405.293 97.7737 401.928 95.821C400.256 94.8583 398.376 94.3133 396.447 94.2325C394.519 94.1516 392.599 94.5372 390.852 95.3564C388.482 94.344 385.643 95.152 383.747 96.9803C381.851 98.8086 380.825 101.506 380.523 104.218C380.304 106.944 380.5 109.686 381.104 112.353C381.292 111.281 381.48 110.21 381.669 109.139L391.677 106.954C390.791 107.749 389.905 108.544 389.019 109.339C393.552 110.37 398.308 109.627 402.309 107.263C406.666 109.214 405.877 113.595 402.052 119.409C403.534 121.875 412.316 107.941 408.337 105.504Z" fill="#2F2E41"/>
<path d="M402.986 127.724C402.957 127.747 402.927 127.769 402.897 127.788C401.85 128.412 400.653 128.736 399.434 128.726C397.84 128.858 396.257 128.363 395.024 127.344C394.377 126.733 391.804 128.025 390.115 128.74C388.343 129.474 386.356 129.497 384.568 128.804L387.729 124.834L392.939 123.68H394.239L400.076 124.341L402.986 127.724Z" fill="#E6E6E6"/>
<path d="M488.23 360.8L311.508 361C311.407 361.001 311.306 360.981 311.212 360.943C311.118 360.904 311.032 360.848 310.96 360.776C310.887 360.705 310.83 360.62 310.79 360.526C310.751 360.433 310.731 360.332 310.73 360.231C310.729 360.129 310.749 360.029 310.787 359.935C310.826 359.841 310.882 359.755 310.954 359.683C311.025 359.611 311.111 359.553 311.204 359.514C311.298 359.475 311.399 359.454 311.5 359.453H311.508L488.23 359.254C488.434 359.255 488.63 359.337 488.775 359.482C488.919 359.627 489 359.823 489 360.027C489 360.232 488.919 360.428 488.775 360.573C488.63 360.718 488.434 360.799 488.23 360.8Z" fill="#CACACA"/>
<path d="M276.63 101.113H275.33V8.216H326.481V9.51487H276.63V101.113Z" fill="#3F3D56"/>
<path d="M366.262 0H331.796C329.554 0 327.403 0.889494 325.818 2.4728C324.232 4.0561 323.342 6.20352 323.342 8.44265C323.342 10.6818 324.232 12.8292 325.818 14.4125C327.403 15.9958 329.554 16.8853 331.796 16.8853H366.262C368.504 16.8853 370.655 15.9958 372.24 14.4125C373.825 12.8292 374.716 10.6818 374.716 8.44265C374.716 6.20352 373.825 4.0561 372.24 2.4728C370.655 0.889494 368.504 0 366.262 0Z" fill="#ABC616"/>
<path d="M275.225 109.612C279.516 109.612 282.994 106.138 282.994 101.854C282.994 97.569 279.516 94.0956 275.225 94.0956C270.935 94.0956 267.457 97.569 267.457 101.854C267.457 106.138 270.935 109.612 275.225 109.612Z" fill="#ABC616"/>
<path d="M181.613 131.005L215.693 123.13L225.475 120.869C226.699 120.586 226.191 118.705 224.966 118.988L190.886 126.863L181.104 129.124C179.88 129.407 180.389 131.288 181.613 131.005H181.613Z" fill="#F2F2F2"/>
<path d="M216.805 110.495L235.049 118.876C235.672 119.091 236.255 119.406 236.776 119.809C237.28 120.302 236.913 120.776 236.502 121.205C235.274 122.35 233.977 123.419 232.619 124.406L224.846 130.716C223.87 131.509 225.247 132.891 226.214 132.106L232.983 126.61L236.368 123.862C237.327 123.083 238.495 122.288 238.88 121.048C239.69 118.442 236.494 117.406 234.719 116.59L226.774 112.94L217.799 108.817C216.667 108.298 215.665 109.971 216.805 110.495Z" fill="#F2F2F2"/>
<path d="M468.574 174.297C465.324 172.097 461.375 171.279 457.516 171.002C453.129 170.763 448.732 170.768 444.346 171.017C439.789 171.197 435.242 171.527 430.704 172.005C426.173 172.484 421.661 173.111 417.167 173.887C413.144 174.513 409.163 175.383 405.246 176.493C401.539 177.518 398.047 179.202 394.938 181.465C392.209 183.514 390.11 186.288 388.88 189.469C387.673 192.453 387.467 195.747 388.295 198.857C388.736 200.368 389.491 201.769 390.511 202.968C391.69 204.284 393.086 205.389 394.639 206.233C397.864 208.071 401.517 209.177 404.433 211.531C405.202 212.146 405.903 212.842 406.524 213.607C406.946 214.198 407.529 214.656 408.204 214.926C408.843 215.149 409.534 215.178 410.19 215.01C410.846 214.841 411.438 214.482 411.89 213.979C412.474 213.18 412.961 212.316 413.34 211.403L414.879 208.439C414.982 208.179 415.111 207.931 415.264 207.698C415.379 207.56 415.173 207.7 415.212 207.664C415.234 207.644 415.278 207.645 415.303 207.629C415.43 207.566 415.563 207.515 415.7 207.477C417.123 206.935 418.553 206.41 419.988 205.902C425.288 204.016 430.651 202.278 436.099 200.87C438.903 200.119 441.746 199.525 444.616 199.09C448.333 198.562 452.106 198.623 455.84 198.261C459.86 197.872 464.008 197.06 467.456 194.849C470.306 193.119 472.502 190.494 473.7 187.385C474.219 185.904 474.397 184.324 474.221 182.764C473.773 179.235 471.464 176.254 468.574 174.297Z" fill="#E6E6E6"/>
<path d="M461.922 176.281C458.985 174.292 455.417 173.553 451.929 173.302C447.965 173.087 443.991 173.092 440.028 173.316C435.91 173.479 431.801 173.777 427.7 174.209C423.605 174.642 419.528 175.209 415.467 175.91C411.832 176.475 408.234 177.262 404.694 178.265C401.344 179.191 398.188 180.713 395.379 182.757C392.913 184.61 391.016 187.116 389.905 189.991C388.814 192.687 388.628 195.664 389.376 198.474C389.775 199.84 390.457 201.106 391.379 202.19C392.444 203.379 393.706 204.377 395.109 205.14C398.023 206.801 401.324 207.8 403.96 209.927C404.654 210.484 405.288 211.113 405.849 211.803C406.23 212.338 406.757 212.752 407.367 212.996C407.945 213.197 408.57 213.224 409.162 213.071C409.755 212.919 410.29 212.595 410.698 212.139C411.226 211.418 411.666 210.637 412.009 209.812L413.399 207.133C413.492 206.899 413.609 206.674 413.747 206.463C413.851 206.339 413.665 206.466 413.7 206.433C413.72 206.415 413.76 206.416 413.782 206.402C413.897 206.344 414.018 206.298 414.141 206.264C415.427 205.774 416.719 205.3 418.017 204.841C422.806 203.137 427.652 201.566 432.576 200.293C435.109 199.614 437.678 199.078 440.272 198.685C443.631 198.207 447.041 198.263 450.415 197.936C454.048 197.585 457.796 196.85 460.912 194.853C463.488 193.289 465.472 190.917 466.554 188.108C467.024 186.769 467.184 185.341 467.025 183.932C466.62 180.742 464.534 178.049 461.922 176.281Z" fill="white"/>
<path d="M455.77 179.872L407.907 188.688C407.77 188.714 407.629 188.713 407.493 188.684C407.356 188.656 407.227 188.601 407.112 188.523C406.997 188.444 406.898 188.344 406.822 188.227C406.746 188.111 406.693 187.981 406.668 187.844C406.642 187.707 406.643 187.567 406.672 187.43C406.701 187.294 406.756 187.165 406.835 187.05C406.914 186.936 407.015 186.838 407.132 186.762C407.249 186.686 407.379 186.634 407.516 186.609L407.523 186.608L455.386 177.792C455.523 177.767 455.663 177.769 455.799 177.798C455.935 177.827 456.064 177.882 456.179 177.961C456.293 178.04 456.391 178.14 456.467 178.257C456.542 178.373 456.594 178.503 456.62 178.64C456.645 178.777 456.643 178.917 456.614 179.053C456.585 179.188 456.529 179.317 456.45 179.432C456.372 179.546 456.271 179.644 456.154 179.719C456.037 179.795 455.907 179.847 455.77 179.872V179.872Z" fill="#E6E6E6"/>
<path d="M456.949 186.255L409.086 195.071C408.949 195.097 408.808 195.096 408.672 195.068C408.535 195.04 408.406 194.985 408.291 194.906C408.176 194.828 408.077 194.728 408.001 194.611C407.925 194.495 407.872 194.364 407.847 194.228C407.821 194.091 407.823 193.95 407.851 193.814C407.88 193.678 407.935 193.549 408.014 193.434C408.093 193.319 408.194 193.221 408.311 193.146C408.428 193.07 408.558 193.018 408.695 192.993L408.702 192.991L456.565 184.175C456.702 184.15 456.842 184.152 456.978 184.181C457.114 184.21 457.243 184.266 457.358 184.344C457.472 184.423 457.57 184.524 457.646 184.64C457.721 184.757 457.773 184.887 457.798 185.024C457.824 185.16 457.822 185.3 457.793 185.436C457.764 185.572 457.708 185.701 457.629 185.815C457.55 185.93 457.45 186.027 457.333 186.103C457.216 186.178 457.086 186.23 456.949 186.255Z" fill="#E6E6E6"/>
<path d="M415.842 200.427L410.265 201.455C409.989 201.505 409.705 201.443 409.474 201.284C409.244 201.125 409.086 200.881 409.035 200.606C408.984 200.331 409.045 200.047 409.203 199.816C409.362 199.585 409.605 199.427 409.88 199.375L415.458 198.347C415.734 198.297 416.019 198.359 416.249 198.518C416.48 198.677 416.638 198.921 416.689 199.196C416.74 199.472 416.679 199.756 416.521 199.987C416.362 200.217 416.118 200.376 415.842 200.427Z" fill="#E6E6E6"/>
<path d="M411.802 226.966C414.246 226.516 415.862 224.172 415.412 221.731C414.961 219.289 412.613 217.675 410.169 218.126C407.724 218.576 406.108 220.92 406.559 223.361C407.01 225.802 409.357 227.417 411.802 226.966Z" fill="#D1D3D4"/>
<path d="M164.1 128.992H123.217C121.319 128.99 119.5 128.236 118.158 126.896C116.816 125.556 116.061 123.739 116.059 121.843V94.9357C116.061 93.0404 116.816 91.2234 118.158 89.8832C119.5 88.543 121.319 87.7891 123.217 87.7869H164.1C165.997 87.7891 167.817 88.543 169.159 89.8832C170.501 91.2233 171.256 93.0404 171.258 94.9357V121.843C171.256 123.739 170.501 125.556 169.159 126.896C167.817 128.236 165.997 128.99 164.1 128.992Z" fill="#E6E6E6"/>
<path d="M159.607 127.543H124.026C122.375 127.541 120.791 126.885 119.623 125.718C118.455 124.552 117.798 122.97 117.796 121.321V97.9027C117.798 96.2531 118.455 94.6717 119.623 93.5054C120.791 92.339 122.375 91.6828 124.026 91.6809H159.607C161.259 91.6828 162.842 92.339 164.01 93.5054C165.178 94.6717 165.835 96.2531 165.837 97.9027V121.321C165.835 122.97 165.178 124.552 164.01 125.718C162.842 126.885 161.259 127.541 159.607 127.543Z" fill="white"/>
<path d="M169.858 153.235H117.4C117.076 153.234 116.766 153.105 116.537 152.876C116.308 152.646 116.179 152.336 116.179 152.012C116.179 151.688 116.308 151.378 116.537 151.149C116.766 150.92 117.076 150.791 117.4 150.79H169.858C170.182 150.791 170.493 150.92 170.722 151.149C170.951 151.378 171.079 151.688 171.079 152.012C171.079 152.336 170.951 152.646 170.722 152.876C170.493 153.105 170.182 153.234 169.858 153.235Z" fill="#E6E6E6"/>
<path d="M169.858 146.25H117.4C117.076 146.249 116.766 146.12 116.537 145.891C116.308 145.662 116.179 145.351 116.179 145.027C116.179 144.704 116.308 144.393 116.537 144.164C116.766 143.935 117.076 143.806 117.4 143.805H169.858C170.182 143.806 170.493 143.935 170.722 144.164C170.951 144.393 171.079 144.704 171.079 145.027C171.079 145.351 170.951 145.662 170.722 145.891C170.493 146.12 170.182 146.249 169.858 146.25Z" fill="#E6E6E6"/>
<path d="M169.858 160.22H117.4C117.076 160.22 116.764 160.091 116.535 159.861C116.305 159.632 116.176 159.321 116.176 158.997C116.176 158.673 116.305 158.362 116.535 158.133C116.764 157.904 117.076 157.775 117.4 157.775H169.858C170.183 157.775 170.494 157.904 170.723 158.133C170.953 158.362 171.082 158.673 171.082 158.997C171.082 159.321 170.953 159.632 170.723 159.861C170.494 160.091 170.183 160.22 169.858 160.22Z" fill="#E6E6E6"/>
<path d="M169.858 167.204H117.4C117.076 167.204 116.764 167.076 116.535 166.846C116.305 166.617 116.176 166.306 116.176 165.982C116.176 165.658 116.305 165.347 116.535 165.118C116.764 164.888 117.076 164.76 117.4 164.76H169.858C170.183 164.76 170.494 164.888 170.723 165.118C170.953 165.347 171.082 165.658 171.082 165.982C171.082 166.306 170.953 166.617 170.723 166.846C170.494 167.076 170.183 167.204 169.858 167.204Z" fill="#E6E6E6"/>
<path d="M169.858 174.189H117.4C117.076 174.189 116.764 174.061 116.535 173.831C116.305 173.602 116.176 173.291 116.176 172.967C116.176 172.643 116.305 172.332 116.535 172.103C116.764 171.873 117.076 171.745 117.4 171.745H169.858C170.183 171.745 170.494 171.873 170.723 172.103C170.953 172.332 171.082 172.643 171.082 172.967C171.082 173.291 170.953 173.602 170.723 173.831C170.494 174.061 170.183 174.189 169.858 174.189Z" fill="#E6E6E6"/>
<path d="M169.858 181.174H117.4C117.076 181.174 116.766 181.045 116.537 180.815C116.308 180.586 116.179 180.276 116.179 179.952C116.179 179.628 116.308 179.318 116.537 179.089C116.766 178.859 117.076 178.73 117.4 178.73H169.858C170.182 178.73 170.493 178.859 170.722 179.089C170.951 179.318 171.079 179.628 171.079 179.952C171.079 180.276 170.951 180.586 170.722 180.815C170.493 181.045 170.182 181.174 169.858 181.174Z" fill="#E6E6E6"/>
<path d="M141.006 165.155H142.307V215.19H48.2354V213.891H141.006V165.155Z" fill="#3F3D56"/>
<path d="M8.45401 223.406H42.9204C45.1625 223.406 47.3128 222.516 48.8983 220.933C50.4837 219.349 51.3744 217.202 51.3744 214.963C51.3744 212.724 50.4837 210.576 48.8983 208.993C47.3128 207.41 45.1625 206.52 42.9204 206.52H8.45401C6.21187 206.52 4.06156 207.41 2.47613 208.993C0.890692 210.576 0 212.724 0 214.963C0 217.202 0.890692 219.349 2.47613 220.933C4.06156 222.516 6.21187 223.406 8.45401 223.406Z" fill="#ABC616"/>
<path d="M142.562 168.925C146.853 168.925 150.331 165.452 150.331 161.167C150.331 156.883 146.853 153.409 142.562 153.409C138.272 153.409 134.794 156.883 134.794 161.167C134.794 165.452 138.272 168.925 142.562 168.925Z" fill="#ABC616"/>
<path d="M182.716 163.323C194.121 165.744 191.22 166.216 202.625 168.637L212.447 170.722C213.675 170.982 214.012 169.063 212.783 168.802C201.377 166.381 204.279 165.909 192.873 163.488L183.052 161.404C181.823 161.143 181.487 163.062 182.716 163.323H182.716Z" fill="#F2F2F2"/>
<path d="M208.986 157.659L221.966 172.961C222.439 173.419 222.834 173.951 223.135 174.536C223.383 175.195 222.85 175.47 222.296 175.685C220.698 176.204 219.07 176.624 217.421 176.944L207.705 179.379C206.485 179.684 207.147 181.518 208.355 181.216L216.818 179.096L221.049 178.036C222.248 177.735 223.642 177.508 224.517 176.547C226.355 174.528 223.898 172.239 222.635 170.75L216.982 164.086L210.596 156.558C209.792 155.61 208.175 156.702 208.986 157.659V157.659Z" fill="#F2F2F2"/>
<path d="M250.143 224.363C260.12 224.363 268.208 216.286 268.208 206.322C268.208 196.358 260.12 188.281 250.143 188.281C240.166 188.281 232.077 196.358 232.077 206.322C232.077 216.286 240.166 224.363 250.143 224.363Z" fill="#E6E6E6"/>
<path d="M248.382 222.063C255.967 222.063 262.116 215.922 262.116 208.347C262.116 200.773 255.967 194.632 248.382 194.632C240.797 194.632 234.648 200.773 234.648 208.347C234.648 215.922 240.797 222.063 248.382 222.063Z" fill="white"/>
<path d="M245.918 217.737C245.606 217.737 245.298 217.665 245.019 217.525C244.74 217.386 244.497 217.184 244.31 216.934L239.382 210.372C239.223 210.161 239.108 209.921 239.042 209.666C238.977 209.411 238.962 209.145 238.999 208.884C239.037 208.623 239.125 208.372 239.259 208.145C239.393 207.918 239.571 207.72 239.782 207.562C239.993 207.404 240.233 207.289 240.489 207.223C240.745 207.158 241.011 207.143 241.272 207.18C241.533 207.217 241.785 207.305 242.012 207.44C242.239 207.574 242.437 207.751 242.596 207.962L242.597 207.964L245.821 212.257L254.103 199.851C254.249 199.632 254.437 199.443 254.657 199.296C254.876 199.149 255.122 199.047 255.381 198.995C255.64 198.943 255.907 198.942 256.166 198.994C256.425 199.045 256.671 199.146 256.891 199.293C257.111 199.439 257.3 199.627 257.447 199.846C257.594 200.066 257.696 200.311 257.747 200.57C257.799 200.829 257.799 201.095 257.747 201.354C257.696 201.613 257.594 201.859 257.447 202.078L247.59 216.844C247.412 217.111 247.172 217.331 246.891 217.487C246.609 217.642 246.295 217.728 245.974 217.737C245.955 217.737 245.936 217.737 245.918 217.737Z" fill="#E6E6E6"/>
<path d="M418.832 224.907C419.413 224.566 419.913 224.101 420.295 223.546C420.678 222.991 420.934 222.358 421.045 221.694C421.156 221.029 421.12 220.348 420.939 219.699C420.758 219.05 420.437 218.448 419.998 217.936L434.504 192.622L425.993 193.084L413.209 217.615C412.397 218.408 411.904 219.471 411.825 220.603C411.745 221.735 412.084 222.856 412.777 223.755C413.47 224.654 414.469 225.268 415.585 225.48C416.701 225.693 417.856 225.489 418.832 224.907H418.832Z" fill="#FFB8B8"/>
<path d="M402.493 136.178C402.493 136.178 417.857 131.246 421.808 143.083C425.759 154.921 439.041 186.981 439.041 186.981L424.771 216.081L418.35 209.176L425.212 188.954L405.457 159.36L402.493 136.178Z" fill="#3F3D56"/>
<path d="M425.26 213.109C424.798 212.328 424.211 211.627 423.524 211.033L418.621 206.322L418.349 206.929C417.846 207.719 417.517 208.607 417.382 209.533C417.247 210.459 417.309 211.404 417.565 212.304C417.821 213.205 418.265 214.041 418.867 214.759C419.469 215.476 420.216 216.058 421.06 216.467C421.779 216.845 422.591 217.012 423.402 216.95C423.806 216.915 424.195 216.785 424.539 216.571C424.883 216.356 425.171 216.064 425.379 215.717C425.57 215.305 425.659 214.852 425.638 214.399C425.618 213.945 425.488 213.503 425.26 213.109Z" fill="#E6E6E6"/>
<path d="M249.986 230.593H248.686V280.628H292.684V279.329H249.986V230.593Z" fill="#3F3D56"/>
<path d="M340.919 280.401C340.917 278.163 340.026 276.017 338.441 274.434C336.856 272.851 334.707 271.961 332.465 271.959H297.999C295.757 271.959 293.606 272.848 292.021 274.431C290.435 276.015 289.545 278.162 289.545 280.401C289.545 282.64 290.435 284.788 292.021 286.371C293.606 287.954 295.757 288.844 297.999 288.844H332.465C334.707 288.842 336.856 287.952 338.441 286.369C340.026 284.786 340.917 282.64 340.919 280.401Z" fill="#ABC616"/>
<path d="M248.43 234.364C252.721 234.364 256.199 230.89 256.199 226.606C256.199 222.321 252.721 218.848 248.43 218.848C244.14 218.848 240.662 222.321 240.662 226.606C240.662 230.89 244.14 234.364 248.43 234.364Z" fill="#ABC616"/>
</svg>
