<svg width="574" height="400" viewBox="0 0 574 400" fill="none" xmlns="http://www.w3.org/2000/svg">
<path d="M114.778 399.204C177.79 399.204 228.871 395.324 228.871 390.538C228.871 385.753 177.79 381.873 114.778 381.873C51.7669 381.873 0.686035 385.753 0.686035 390.538C0.686035 395.324 51.7669 399.204 114.778 399.204Z" fill="#E6E6E6"/>
<path d="M87.8961 89.196C107.752 80.7507 132.482 86.1015 156.634 89.8152C156.859 85.318 159.583 79.8446 156.729 76.707C153.262 72.8952 153.581 68.89 155.668 64.8618C161.002 54.561 153.359 43.6004 145.642 34.4867C143.902 32.4372 141.704 30.8268 139.225 29.7865C136.747 28.7461 134.057 28.3051 131.376 28.4992L117.08 29.5203C113.602 29.7688 110.282 31.0738 107.565 33.2606C104.848 35.4475 102.864 38.4119 101.878 41.7572C98.4645 46.3997 96.6374 51.0294 97.7877 55.635C92.6748 59.1291 91.8157 63.3469 94.1133 68.1017C96.0615 71.0954 96.0408 74.0096 94.0247 76.8431C91.3769 80.4557 89.3489 84.4838 88.0239 88.7623L87.8961 89.196Z" fill="#2F2E41"/>
<path d="M559.745 345.213H155.065C151.467 345.213 148.015 343.783 145.471 341.239C142.926 338.694 141.496 335.243 141.496 331.644C288.192 314.595 432.132 314.595 573.314 331.644C573.314 335.243 571.884 338.694 569.34 341.239C566.795 343.783 563.344 345.213 559.745 345.213Z" fill="#2F2E41"/>
<path d="M573.314 332.442L141.496 331.644L191.542 247.435L191.782 247.036V61.4505C191.782 59.1978 192.225 56.9673 193.087 54.8861C193.949 52.8049 195.213 50.9139 196.805 49.3211C198.398 47.7282 200.289 46.4647 202.37 45.6028C204.452 44.7408 206.682 44.2973 208.935 44.2975H503.481C505.733 44.2973 507.964 44.7408 510.045 45.6028C512.126 46.4647 514.017 47.7282 515.61 49.3211C517.203 50.9139 518.467 52.8049 519.328 54.8861C520.19 56.9673 520.634 59.1978 520.634 61.4505V248.313L573.314 332.442Z" fill="#3F3D56"/>
<path d="M208.544 56.2702C207.062 56.2719 205.642 56.8611 204.595 57.9086C203.547 58.956 202.958 60.3762 202.956 61.8575V231.073C202.958 232.554 203.547 233.974 204.595 235.022C205.642 236.069 207.062 236.658 208.544 236.66H506.267C507.748 236.658 509.168 236.069 510.215 235.021C511.263 233.974 511.852 232.554 511.854 231.073V61.8575C511.852 60.3762 511.263 58.9561 510.215 57.9086C509.168 56.8612 507.748 56.272 506.267 56.2702H208.544Z" fill="white"/>
<path d="M209.791 259.009C209.334 259.01 208.886 259.142 208.5 259.388C208.115 259.635 207.808 259.987 207.616 260.403L192.195 293.927C192.027 294.291 191.954 294.693 191.981 295.093C192.009 295.494 192.137 295.881 192.354 296.219C192.571 296.557 192.869 296.835 193.221 297.028C193.573 297.221 193.969 297.322 194.37 297.322H518.661C519.069 297.322 519.471 297.218 519.827 297.019C520.184 296.82 520.483 296.533 520.698 296.186C520.912 295.839 521.035 295.443 521.053 295.035C521.071 294.627 520.985 294.221 520.802 293.856L504.04 260.333C503.843 259.934 503.537 259.599 503.159 259.365C502.78 259.131 502.344 259.008 501.899 259.009H209.791Z" fill="#2F2E41"/>
<path d="M356.208 53.4766C358.192 53.4766 359.8 51.8685 359.8 49.8848C359.8 47.9011 358.192 46.2929 356.208 46.2929C354.224 46.2929 352.616 47.9011 352.616 49.8848C352.616 51.8685 354.224 53.4766 356.208 53.4766Z" fill="white"/>
<path d="M324.333 303.707C323.806 303.708 323.295 303.882 322.877 304.202C322.459 304.522 322.158 304.971 322.021 305.479L318.153 319.846C318.057 320.201 318.044 320.574 318.116 320.934C318.187 321.295 318.34 321.634 318.564 321.926C318.787 322.218 319.075 322.454 319.405 322.617C319.734 322.779 320.097 322.864 320.464 322.864H394.028C394.41 322.864 394.786 322.773 395.125 322.598C395.465 322.423 395.757 322.169 395.978 321.858C396.2 321.547 396.344 321.188 396.398 320.81C396.452 320.432 396.415 320.047 396.29 319.686L391.317 305.319C391.154 304.848 390.848 304.44 390.443 304.152C390.037 303.863 389.552 303.708 389.054 303.707H324.333Z" fill="#2F2E41"/>
<path d="M520.634 244.243V247.435H191.542L191.79 247.037V244.243H520.634Z" fill="#2F2E41"/>
<path d="M511.455 112.542C542.312 112.542 567.328 87.5271 567.328 56.6693C567.328 25.8116 542.312 0.796417 511.455 0.796417C480.597 0.796417 455.582 25.8116 455.582 56.6693C455.582 87.5271 480.597 112.542 511.455 112.542Z" fill="#ABC616"/>
<path d="M534.602 81.014H488.307C487.461 81.0131 486.649 80.6765 486.051 80.0779C485.452 79.4793 485.115 78.6677 485.115 77.8212V49.8848C485.116 49.0383 485.452 48.2267 486.051 47.6281C486.649 47.0296 487.461 46.6929 488.307 46.692H534.602C535.449 46.6929 536.26 47.0296 536.859 47.6281C537.457 48.2267 537.794 49.0383 537.795 49.8848V77.8212C537.794 78.6677 537.457 79.4793 536.859 80.0779C536.26 80.6765 535.449 81.0131 534.602 81.014ZM488.307 49.8848V77.8212H534.604L534.602 49.8848L488.307 49.8848Z" fill="white"/>
<path d="M525.822 49.8848H497.087V37.1138C497.087 27.8638 503.13 21.1501 511.455 21.1501C519.779 21.1501 525.822 27.8638 525.822 37.1138L525.822 49.8848ZM500.28 46.692H522.629V37.1138C522.629 29.5945 518.034 24.3429 511.455 24.3429C504.875 24.3429 500.28 29.5946 500.28 37.1138L500.28 46.692Z" fill="white"/>
<path d="M511.455 66.2475C513.218 66.2475 514.647 64.8181 514.647 63.0548C514.647 61.2915 513.218 59.8621 511.455 59.8621C509.691 59.8621 508.262 61.2915 508.262 63.0548C508.262 64.8181 509.691 66.2475 511.455 66.2475Z" fill="white"/>
<path d="M472.451 179.264H242.36C241.23 179.263 240.147 178.813 239.348 178.014C238.549 177.216 238.1 176.133 238.099 175.003V117.927C238.1 116.797 238.549 115.714 239.348 114.916C240.147 114.117 241.23 113.668 242.36 113.666H472.451C473.58 113.668 474.663 114.117 475.462 114.916C476.261 115.714 476.71 116.797 476.711 117.927V175.003C476.71 176.133 476.261 177.216 475.462 178.014C474.663 178.813 473.58 179.263 472.451 179.264ZM242.36 115.371C241.682 115.371 241.032 115.641 240.553 116.12C240.073 116.6 239.804 117.249 239.803 117.927V175.003C239.804 175.681 240.073 176.331 240.553 176.81C241.032 177.289 241.682 177.559 242.36 177.559H472.451C473.128 177.559 473.778 177.289 474.257 176.81C474.737 176.331 475.006 175.681 475.007 175.003V117.927C475.006 117.249 474.737 116.599 474.257 116.12C473.778 115.641 473.128 115.371 472.451 115.371L242.36 115.371Z" fill="#E6E6E6"/>
<path d="M278.111 161.632C287.697 161.632 295.468 153.861 295.468 144.275C295.468 134.689 287.697 126.918 278.111 126.918C268.525 126.918 260.754 134.689 260.754 144.275C260.754 153.861 268.525 161.632 278.111 161.632Z" fill="#E6E6E6"/>
<path d="M318.197 132.704C317.817 132.703 317.44 132.778 317.089 132.923C316.737 133.068 316.418 133.281 316.149 133.55C315.879 133.818 315.666 134.137 315.52 134.489C315.375 134.84 315.3 135.216 315.3 135.597C315.3 135.977 315.375 136.353 315.52 136.705C315.666 137.056 315.879 137.375 316.149 137.644C316.418 137.912 316.737 138.125 317.089 138.271C317.44 138.416 317.817 138.49 318.197 138.489H454.572C455.339 138.489 456.075 138.185 456.617 137.642C457.16 137.1 457.465 136.364 457.465 135.597C457.465 134.829 457.16 134.094 456.617 133.551C456.075 133.009 455.339 132.704 454.572 132.704H318.197Z" fill="#E6E6E6"/>
<path d="M318.197 150.061C317.43 150.061 316.694 150.365 316.152 150.908C315.609 151.45 315.304 152.186 315.304 152.953C315.304 153.721 315.609 154.457 316.152 154.999C316.694 155.542 317.43 155.846 318.197 155.846H376.879C377.647 155.846 378.382 155.542 378.925 154.999C379.467 154.457 379.772 153.721 379.772 152.953C379.772 152.186 379.467 151.45 378.925 150.908C378.382 150.365 377.647 150.061 376.879 150.061H318.197Z" fill="#E6E6E6"/>
<path d="M190.976 151.231L148.442 173.844L147.904 155C161.786 152.682 174.995 148.647 187.207 142.078L191.656 131.088C192.141 129.89 192.928 128.839 193.942 128.038C194.956 127.237 196.16 126.713 197.437 126.518C198.714 126.323 200.02 126.463 201.227 126.925C202.433 127.388 203.499 128.155 204.319 129.154C205.519 130.614 206.118 132.477 205.997 134.363C205.875 136.249 205.041 138.019 203.663 139.313L190.976 151.231Z" fill="#FFB8B8"/>
<path d="M87.0483 281.791C86.738 280.653 86.6721 279.462 86.8549 278.296C87.0378 277.131 87.4653 276.018 88.1092 275.029L97.4528 260.69C99.6627 257.298 103.054 254.849 106.968 253.816C110.882 252.783 115.04 253.242 118.636 255.102C114.709 261.786 115.256 267.649 119.992 272.745C112.64 276.334 105.846 280.966 99.8191 286.498C98.7188 287.248 97.4552 287.724 96.1336 287.887C94.812 288.05 93.4706 287.894 92.2211 287.434C90.9717 286.973 89.8504 286.221 88.9506 285.239C88.0508 284.258 87.3986 283.075 87.0483 281.791Z" fill="#2F2E41"/>
<path d="M192.913 263.042C191.499 265.398 189.504 267.352 187.117 268.715C184.731 270.078 182.035 270.804 179.287 270.825L117.214 271.295L114.522 255.682L141.981 247.606L118.83 229.838L144.135 200.226L190.097 243.064C192.783 245.568 194.528 248.918 195.041 252.554C195.554 256.191 194.803 259.893 192.913 263.042Z" fill="#2F2E41"/>
<path d="M107.523 369.824H92.9862C79.9341 280.357 66.6483 190.64 105.908 157.153L152.211 164.691L146.288 203.995L120.445 233.607L107.523 369.824Z" fill="#2F2E41"/>
<path d="M120.302 390.091C119.164 390.401 117.973 390.467 116.808 390.284C115.642 390.102 114.529 389.674 113.541 389.03L97.7565 386.909C94.3648 384.699 91.9148 381.308 90.882 377.394C89.8491 373.48 90.307 369.322 92.1667 365.726C98.8511 369.652 104.715 369.105 109.81 364.369C113.411 371.639 119.343 371.195 125.008 377.32C125.758 378.42 126.235 379.683 126.398 381.005C126.56 382.327 126.405 383.668 125.945 384.918C125.484 386.167 124.732 387.288 123.75 388.188C122.769 389.088 121.587 389.74 120.302 390.091Z" fill="#2F2E41"/>
<path d="M141.981 97.3903L115.061 90.9294C119.532 81.7775 119.9 71.5942 117.753 60.7786L136.059 60.2402C136.632 73.6897 138.368 86.2549 141.981 97.3903Z" fill="#FFB8B8"/>
<path d="M149.38 180.902C129.783 194.256 115.936 181.359 105.37 161.461C106.838 149.285 104.46 134.713 100.057 118.881C98.099 111.897 98.8301 104.434 102.106 97.9632C105.382 91.4926 110.965 86.4854 117.753 83.9301L140.904 93.6214C160.563 109.645 164.432 127.002 157.056 145.308L149.38 180.902Z" fill="#ABC616"/>
<path d="M92.9862 110.85L71.4499 122.157L109.677 144.77L114.996 157.89C115.351 158.766 115.524 159.705 115.504 160.65C115.484 161.594 115.273 162.525 114.881 163.385C114.49 164.245 113.928 165.017 113.229 165.653C112.53 166.289 111.709 166.775 110.815 167.083C109.8 167.433 108.717 167.544 107.652 167.406C106.587 167.268 105.568 166.885 104.675 166.287C103.783 165.689 103.041 164.893 102.507 163.961C101.974 163.029 101.663 161.986 101.6 160.913L101.062 151.769L52.4764 135.736C50.8394 135.196 49.3469 134.29 48.1117 133.088C46.8766 131.885 45.9312 130.417 45.3474 128.795C44.4962 126.431 44.4529 123.852 45.2242 121.46C45.9954 119.069 47.5377 117.001 49.6097 115.579L88.679 88.7758L92.9862 110.85Z" fill="#FFB8B8"/>
<path d="M114.522 113.004C105.54 109.068 97.3729 113.344 87.0637 116.773L85.4485 88.2373C95.6851 82.7814 105.445 81.3103 114.522 85.5453L114.522 113.004Z" fill="#ABC616"/>
<path d="M125.267 74.3749C134.759 74.3749 142.454 66.6797 142.454 57.1873C142.454 47.6948 134.759 39.9997 125.267 39.9997C115.774 39.9997 108.079 47.6948 108.079 57.1873C108.079 66.6797 115.774 74.3749 125.267 74.3749Z" fill="#FFB8B8"/>
<path d="M145.829 55.0186C128.812 56.6853 115.845 53.9022 107.557 45.9779V39.5961H144.385L145.829 55.0186Z" fill="#2F2E41"/>
</svg>
