<svg width="140" height="54" viewBox="0 0 140 54" fill="none" xmlns="http://www.w3.org/2000/svg">
<path d="M27.7399 33.8373L0 49.9259L27.7399 0.396942V33.8373Z" fill="#4E4B98"/>
<path d="M27.7401 33.8373L55.477 49.9259L27.7401 0.396942V33.8373Z" fill="#00A4B2"/>
<path d="M55.4768 49.9258L27.7399 33.8372L0 49.9258H55.4768Z" fill="#190F3E"/>
<path d="M81.25 29.6003L84.0733 29.5827L86.3293 36.5463L88.5667 29.5827H91.2847L87.6773 39.1404H84.8713L81.25 29.6003Z" fill="#031D3D"/>
<path d="M101.117 30.8249C101.915 31.7141 102.315 32.9508 102.315 34.5379C102.315 34.8235 102.309 35.0414 102.297 35.1945H95.4393C95.5927 35.7981 95.89 36.2692 96.3287 36.6049C96.7673 36.9435 97.2947 37.1114 97.91 37.1114C98.3607 37.1114 98.7933 37.026 99.2053 36.8522C99.6207 36.6814 99.992 36.4282 100.325 36.0984L101.764 37.556C101.279 38.1007 100.689 38.5188 99.9973 38.8074C99.306 39.0988 98.5313 39.2432 97.68 39.2432C96.6733 39.2432 95.796 39.0429 95.042 38.6395C94.2913 38.2361 93.7113 37.6678 93.302 36.9347C92.8927 36.2015 92.6893 35.3535 92.6893 34.3936C92.6893 33.4219 92.8953 32.568 93.3107 31.826C93.726 31.087 94.306 30.5128 95.0507 30.1035C95.796 29.6942 96.65 29.491 97.6093 29.491C99.1493 29.494 100.319 29.9386 101.117 30.8249ZM99.7413 33.578C99.718 32.9508 99.518 32.4473 99.138 32.0674C98.758 31.6876 98.2547 31.4992 97.6273 31.4992C97.0353 31.4992 96.5407 31.6847 96.1433 32.0586C95.746 32.4326 95.4953 32.939 95.3893 33.578H99.7413Z" fill="#031D3D"/>
<path d="M109.475 29.9563C110.009 29.6471 110.63 29.4881 111.339 29.4763V32.0528C111.245 32.041 111.104 32.0351 110.913 32.0351C110.071 32.0351 109.405 32.2618 108.913 32.7182C108.421 33.1746 108.177 33.7812 108.177 34.5379V39.1401H105.442V29.5823H108.177V31.3049C108.51 30.7131 108.943 30.2625 109.475 29.9563Z" fill="#031D3D"/>
<path d="M113.701 29.6001H121.854V31.3226L116.934 36.9877H122.013V39.1549L113.521 39.1372V37.4147L118.441 31.7495L113.698 31.7319V29.6001H113.701Z" fill="#031D3D"/>
<path d="M132.769 30.8249C133.567 31.7141 133.968 32.9508 133.968 34.5379C133.968 34.8235 133.962 35.0414 133.95 35.1945H127.093C127.245 35.7981 127.543 36.2692 127.981 36.6049C128.421 36.9435 128.947 37.1114 129.563 37.1114C130.013 37.1114 130.446 37.026 130.859 36.8522C131.273 36.6814 131.645 36.4282 131.977 36.0984L133.417 37.556C132.931 38.1007 132.343 38.5188 131.651 38.8074C130.959 39.0988 130.184 39.2432 129.333 39.2432C128.326 39.2432 127.449 39.0429 126.695 38.6395C125.944 38.2361 125.364 37.6678 124.955 36.9347C124.545 36.2015 124.342 35.3535 124.342 34.3936C124.342 33.4219 124.549 32.568 124.963 31.826C125.379 31.087 125.959 30.5128 126.704 30.1035C127.449 29.6942 128.303 29.491 129.263 29.491C130.803 29.494 131.971 29.9386 132.769 30.8249ZM131.394 33.578C131.371 32.9508 131.171 32.4473 130.791 32.0674C130.411 31.6876 129.907 31.4992 129.28 31.4992C128.688 31.4992 128.193 31.6847 127.796 32.0586C127.399 32.4326 127.149 32.939 127.043 33.578H131.394Z" fill="#031D3D"/>
<path d="M137.183 25.958H139.919V39.1375H137.183V25.958Z" fill="#031D3D"/>
<path d="M59.5196 30.6455L32.9663 30.5807L73.4767 6.72751L59.5196 30.6455Z" fill="#ABC616"/>
<path d="M59.5197 30.6455L72.6493 53.7301L73.4767 6.72751L59.5197 30.6455Z" fill="#6AB026"/>
<path d="M72.6487 53.7303L59.5196 30.6456L32.9663 30.5809L72.6487 53.7303Z" fill="#210E3F"/>
</svg>
