<svg width="769" height="461" viewBox="0 0 769 461" fill="none" xmlns="http://www.w3.org/2000/svg">
<path d="M588.634 454.904C578.798 446.593 572.824 433.465 574.391 420.684C575.958 407.903 585.661 396.154 598.248 393.44C610.836 390.726 625.184 398.239 629.007 410.534C631.111 386.829 633.536 362.13 646.139 341.942C657.551 323.663 677.317 310.583 698.739 308.244C720.161 305.904 742.715 314.741 756.075 331.649C769.435 348.557 772.706 373.138 763.349 392.55C756.456 406.85 743.757 417.492 730.451 426.15C687.456 453.891 635.888 465.172 585.237 457.918L588.634 454.904Z" fill="#F2F2F2"/>
<path d="M734.891 315.231C717.216 329.628 701 345.73 686.479 363.304C663.754 390.713 645.365 421.444 631.952 454.426C630.97 456.832 634.877 457.879 635.848 455.5C657.794 401.898 692.829 354.654 737.748 318.088C739.766 316.446 736.892 313.602 734.891 315.231Z" fill="white"/>
<path d="M247.769 452.646C261.278 441.231 269.483 423.199 267.331 405.645C265.18 388.091 251.852 371.953 234.563 368.225C217.275 364.497 197.567 374.816 192.316 391.704C189.426 359.145 186.096 325.221 168.786 297.493C153.111 272.387 125.962 254.422 96.5396 251.208C67.1167 247.994 36.1382 260.132 17.7882 283.356C-0.561751 306.579 -5.05466 340.34 7.79718 367.002C17.2647 386.643 34.7072 401.26 52.9825 413.152C111.287 451.091 183.614 466.914 252.435 456.786" fill="#F2F2F2"/>
<path d="M46.8841 260.805C71.1617 280.58 93.4337 302.696 113.378 326.834C133.326 350.947 150.888 376.938 165.817 404.442C174.161 419.871 181.658 435.743 188.272 451.989C189.621 455.294 184.254 456.732 182.921 453.464C171.205 424.823 156.711 397.399 139.645 371.585C122.663 345.865 103.225 321.853 81.6061 299.886C69.3782 287.468 56.4767 275.731 42.96 264.729C40.1895 262.473 44.1365 258.568 46.8841 260.805L46.8841 260.805Z" fill="white"/>
<path d="M551.907 459.092H229.608V128.405C229.608 58.0487 286.847 0.809967 357.203 0.809967H424.312C494.668 0.809967 551.907 58.0487 551.907 128.405V459.092Z" fill="#F2F2F2"/>
<path d="M484.798 459.092H229.608V128.405C229.538 101.446 238.075 75.1685 253.976 53.3982C254.562 52.5993 255.146 51.8107 255.749 51.0307C263.441 40.9433 272.593 32.0594 282.906 24.6724C283.488 24.2485 284.073 23.8321 284.666 23.4156C293.295 17.4441 302.63 12.5626 312.457 8.8821C313.04 8.66091 313.634 8.43929 314.229 8.22672C323.116 5.05502 332.329 2.88241 341.698 1.74903C342.278 1.66969 342.875 1.60761 343.471 1.54552C352.6 0.56938 361.808 0.56938 370.937 1.54552C371.532 1.60761 372.128 1.66968 372.716 1.74988C382.082 2.88334 391.293 5.05567 400.178 8.22676C400.772 8.43933 401.366 8.66094 401.952 8.88255C411.657 12.5166 420.882 17.3253 429.419 23.2013C430.012 23.6087 430.606 24.0252 431.191 24.4417C436.971 28.5678 442.4 33.1645 447.423 38.1849C451.452 42.2118 455.205 46.5043 458.659 51.0334C459.26 51.8108 459.845 52.5994 460.43 53.397C476.332 75.1675 484.869 101.446 484.798 128.405V459.092Z" fill="#CCCCCC"/>
<path d="M464.047 311.188C471.85 311.188 478.176 304.863 478.176 297.06C478.176 289.257 471.85 282.932 464.047 282.932C456.245 282.932 449.919 289.257 449.919 297.06C449.919 304.863 456.245 311.188 464.047 311.188Z" fill="#ABC616"/>
<path d="M525.504 449.188H514.678L509.528 407.432L525.506 407.433L525.504 449.188Z" fill="#FFB8B8"/>
<path d="M506.946 446.094H527.823V459.24H493.8C493.8 457.513 494.14 455.804 494.801 454.209C495.462 452.614 496.43 451.165 497.65 449.944C498.871 448.724 500.32 447.755 501.915 447.095C503.51 446.434 505.219 446.094 506.946 446.094Z" fill="#2F2E41"/>
<path d="M579.368 449.188H568.542L563.391 407.432L579.369 407.433L579.368 449.188Z" fill="#FFB8B8"/>
<path d="M560.809 446.094H581.687V459.24H547.664C547.664 457.513 548.004 455.804 548.665 454.209C549.325 452.614 550.294 451.165 551.514 449.944C552.735 448.724 554.184 447.755 555.779 447.095C557.374 446.434 559.083 446.094 560.809 446.094Z" fill="#2F2E41"/>
<path d="M471.198 299.859C470.419 298.711 469.901 297.407 469.681 296.038C469.461 294.669 469.544 293.268 469.923 291.934C470.303 290.6 470.971 289.366 471.879 288.318C472.787 287.27 473.914 286.434 475.181 285.869L511.981 184.441L530.089 194.323L488.071 291.251C488.879 293.442 488.856 295.853 488.006 298.027C487.156 300.202 485.537 301.989 483.458 303.05C481.378 304.111 478.981 304.372 476.721 303.784C474.462 303.196 472.497 301.799 471.198 299.859Z" fill="#FFB8B8"/>
<path d="M573.838 318.918C572.635 318.228 571.598 317.283 570.799 316.149C570.001 315.015 569.461 313.72 569.218 312.354C568.974 310.989 569.033 309.587 569.39 308.247C569.747 306.907 570.393 305.661 571.283 304.598L559.883 197.304L580.49 198.246L585.228 303.783C586.915 305.398 587.952 307.574 588.141 309.902C588.33 312.229 587.659 314.544 586.255 316.41C584.851 318.275 582.812 319.561 580.523 320.023C578.235 320.485 575.856 320.092 573.838 318.918Z" fill="#FFB8B8"/>
<path d="M540.963 165.653C552.94 165.653 562.65 155.944 562.65 143.966C562.65 131.988 552.94 122.278 540.963 122.278C528.985 122.278 519.275 131.988 519.275 143.966C519.275 155.944 528.985 165.653 540.963 165.653Z" fill="#FFB8B8"/>
<path d="M573.699 294.516H508.315L508.394 294.007C508.511 293.246 520.047 217.68 511.539 192.959C510.685 190.529 510.76 187.87 511.75 185.493C512.739 183.115 514.573 181.188 516.898 180.081H516.898C529.059 174.355 552.402 167.303 572.104 184.416C575.004 186.976 577.268 190.175 578.717 193.761C580.167 197.346 580.763 201.22 580.457 205.075L573.699 294.516Z" fill="#ABC616"/>
<path d="M520.873 228.848L491.437 222.876L505.235 190.178C506.06 187.011 508.108 184.301 510.93 182.642C513.751 180.983 517.115 180.511 520.284 181.329C523.453 182.147 526.168 184.189 527.834 187.006C529.499 189.823 529.98 193.186 529.169 196.357L520.873 228.848Z" fill="#ABC616"/>
<path d="M558.574 239.936L556.804 199.37C555.462 191.744 559.828 184.535 566.542 183.356C573.257 182.182 579.815 187.471 581.163 195.153L587.815 233.059L558.574 239.936Z" fill="#ABC616"/>
<path d="M571.524 289.659C582.045 329.727 583.192 380.67 580.354 436.239L566.226 434.473L540.619 328.512L526.491 436.239L510.596 435.356C505.848 377.051 501.225 326.997 508.83 294.074L571.524 289.659Z" fill="#2F2E41"/>
<path d="M555.253 160.727C551.207 165.036 543.693 162.723 543.166 156.835C543.125 156.378 543.128 155.918 543.175 155.461C543.447 152.853 544.954 150.486 544.593 147.732C544.511 147.047 544.256 146.393 543.851 145.834C540.627 141.517 533.059 147.765 530.016 143.857C528.15 141.461 530.343 137.687 528.911 135.009C527.022 131.474 521.425 133.218 517.915 131.281C514.009 129.127 514.243 123.136 516.814 119.491C519.949 115.046 525.446 112.675 530.874 112.333C536.302 111.991 541.694 113.458 546.761 115.433C552.52 117.677 558.23 120.779 561.773 125.842C566.082 131.999 566.497 140.277 564.342 147.477C563.031 151.857 558.557 157.207 555.253 160.727Z" fill="#2F2E41"/>
<path d="M742.18 459.66H90.2583C89.98 459.66 89.7134 459.548 89.5168 459.351C89.3203 459.154 89.21 458.887 89.21 458.609C89.21 458.331 89.3203 458.064 89.5168 457.867C89.7134 457.67 89.98 457.558 90.2583 457.558H742.18C742.458 457.558 742.724 457.67 742.921 457.867C743.117 458.064 743.228 458.331 743.228 458.609C743.228 458.887 743.117 459.154 742.921 459.351C742.724 459.548 742.458 459.66 742.18 459.66Z" fill="#3F3D56"/>
<path d="M414.599 363.286H299.807C298.296 363.294 296.842 362.702 295.766 361.64C294.69 360.578 294.08 359.133 294.068 357.621V101.398C294.08 99.8866 294.69 98.4412 295.766 97.3792C296.842 96.3172 298.296 95.7254 299.807 95.7335H414.599C416.111 95.7254 417.564 96.3172 418.64 97.3792C419.716 98.4412 420.327 99.8866 420.338 101.398V357.621C420.327 359.133 419.716 360.578 418.64 361.64C417.564 362.702 416.111 363.294 414.599 363.286Z" fill="white"/>
<path d="M420.338 178.639H294.068V180.405H420.338V178.639Z" fill="#CCCCCC"/>
<path d="M420.78 279.4H294.51V281.166H420.78V279.4Z" fill="#CCCCCC"/>
<path d="M335.569 95.7336H333.803V364.169H335.569V95.7336Z" fill="#CCCCCC"/>
<path d="M379.72 95.7336H377.954V364.169H379.72V95.7336Z" fill="#CCCCCC"/>
</svg>
