<svg width="28" height="39" viewBox="0 0 28 39" fill="none" xmlns="http://www.w3.org/2000/svg">
<path opacity="0.3" fill-rule="evenodd" clip-rule="evenodd" d="M7.16683 4.125H2.3335C1.22893 4.125 0.333496 5.02043 0.333496 6.125V36.2917C0.333496 37.3962 1.22893 38.2917 2.3335 38.2917H25.6668C26.7714 38.2917 27.6668 37.3962 27.6668 36.2917V6.125C27.6668 5.02043 26.7714 4.125 25.6668 4.125H20.8335V4.97916C20.8335 6.39439 19.6862 7.54166 18.271 7.54166H9.72933C8.3141 7.54166 7.16683 6.39439 7.16683 4.97916V4.125Z" fill="#ABC616"/>
<path fill-rule="evenodd" clip-rule="evenodd" d="M12.2917 2.41665L9.375 2.41665C9.09886 2.41665 8.875 2.6405 8.875 2.91665V5.33331C8.875 5.60946 9.09886 5.83331 9.375 5.83331H18.625C18.9011 5.83331 19.125 5.60946 19.125 5.33331V2.91665C19.125 2.6405 18.9011 2.41665 18.625 2.41665L15.7083 2.41665C15.7083 1.47316 14.9435 0.708313 14 0.708313C13.0565 0.708313 12.2917 1.47316 12.2917 2.41665Z" fill="#ABC616"/>
<rect opacity="0.3" x="5.4585" y="16.0833" width="8.54167" height="3.41667" rx="1.70834" fill="#ABC616"/>
<rect opacity="0.3" x="5.4585" y="22.9167" width="15.375" height="3.41667" rx="1.70833" fill="#ABC616"/>
</svg>
