<svg width="28" height="28" viewBox="0 0 28 28" fill="none" xmlns="http://www.w3.org/2000/svg">
<path opacity="0.6" d="M11.6662 25.005H7.66456C3.98113 25.005 0.995117 22.019 0.995117 18.3355V7.66444C0.995117 3.98101 3.98113 0.994995 7.66456 0.994995H18.3357C22.0191 0.994995 25.0051 3.98101 25.0051 7.66444V11.6661" stroke="#ABC616" stroke-width="1.5" stroke-linecap="round" stroke-linejoin="round"/>
<path d="M7.66455 7.66438H18.3357" stroke="#ABC616" stroke-width="1.5" stroke-linecap="round" stroke-linejoin="round"/>
<path d="M7.66455 18.3355H11.6662" stroke="#ABC616" stroke-width="1.5" stroke-linecap="round" stroke-linejoin="round"/>
<path fill-rule="evenodd" clip-rule="evenodd" d="M20.938 26.3388C23.9209 26.3388 26.3389 23.9207 26.3389 20.9379C26.3389 17.9551 23.9209 15.537 20.938 15.537C17.9552 15.537 15.5371 17.9551 15.5371 20.9379C15.5371 23.9207 17.9552 26.3388 20.938 26.3388Z" stroke="#ABC616" stroke-width="1.5" stroke-linecap="round" stroke-linejoin="round"/>
<path d="M22.847 20.9378H19.0289" stroke="#ABC616" stroke-width="1.5" stroke-linecap="round" stroke-linejoin="round"/>
<path d="M20.938 19.0287V22.8468" stroke="#ABC616" stroke-width="1.5" stroke-linecap="round" stroke-linejoin="round"/>
<path d="M7.66455 13H14.334" stroke="#ABC616" stroke-width="1.5" stroke-linecap="round" stroke-linejoin="round"/>
</svg>
