<svg width="28" height="30" viewBox="0 0 28 30" fill="none" xmlns="http://www.w3.org/2000/svg">
<path d="M6.70512 4.81268C7.47523 4.30849 8.50825 4.52405 9.01244 5.29416C9.51663 6.06427 9.30106 7.09729 8.53095 7.60148C5.72456 9.43883 4.00008 12.5588 4.00008 15.975C4.00008 21.4978 8.47723 25.975 14.0001 25.975C19.5229 25.975 24.0001 21.4978 24.0001 15.975C24.0001 12.6341 22.3515 9.57446 19.646 7.71995C18.8868 7.19952 18.6932 6.16215 19.2137 5.40292C19.7341 4.6437 20.7715 4.45012 21.5307 4.97055C25.1334 7.44016 27.3334 11.5231 27.3334 15.975C27.3334 23.3388 21.3639 29.3083 14.0001 29.3083C6.63628 29.3083 0.666748 23.3388 0.666748 15.975C0.666748 11.4225 2.9677 7.25957 6.70512 4.81268Z" fill="#ABC616"/>
<rect opacity="0.3" x="12.3335" y="0.974976" width="3.33333" height="16.6667" rx="1" fill="#ABC616"/>
</svg>
