<svg width="35" height="28" viewBox="0 0 35 28" fill="none" xmlns="http://www.w3.org/2000/svg">
<path fill-rule="evenodd" clip-rule="evenodd" d="M25.7362 26.5951L34.8046 12.6769C35.1608 12.1301 35.0164 11.3914 34.482 11.0268C34.291 10.8965 34.0666 10.827 33.837 10.827H26.7068V2.06488C26.7068 1.40773 26.1861 0.875 25.5439 0.875C25.1551 0.875 24.792 1.07383 24.5763 1.40485L15.5079 15.3231C15.1517 15.8699 15.2961 16.6086 15.8305 16.9732C16.0215 17.1035 16.2459 17.173 16.4755 17.173H23.6057V25.9351C23.6057 26.5923 24.1264 27.125 24.7686 27.125C25.1574 27.125 25.5205 26.9262 25.7362 26.5951Z" fill="#ABC616"/>
<path opacity="0.6" fill-rule="evenodd" clip-rule="evenodd" d="M5.73803 1.96875H13.9352C15.2934 1.96875 16.3944 3.06975 16.3944 4.42791C16.3944 5.78606 15.2934 6.88707 13.9352 6.88707H5.73803C4.37988 6.88707 3.27888 5.78606 3.27888 4.42791C3.27888 3.06975 4.37988 1.96875 5.73803 1.96875ZM5.73803 21.642H13.9352C15.2934 21.642 16.3944 22.743 16.3944 24.1012C16.3944 25.4593 15.2934 26.5603 13.9352 26.5603H5.73803C4.37988 26.5603 3.27888 25.4593 3.27888 24.1012C3.27888 22.743 4.37988 21.642 5.73803 21.642ZM2.45916 11.8054H9.01691C10.3751 11.8054 11.4761 12.9064 11.4761 14.2645C11.4761 15.6227 10.3751 16.7237 9.01691 16.7237H2.45916C1.101 16.7237 0 15.6227 0 14.2645C0 12.9064 1.101 11.8054 2.45916 11.8054Z" fill="#ABC616"/>
</svg>
