<svg width="26" height="27" viewBox="0 0 26 27" fill="none" xmlns="http://www.w3.org/2000/svg">
<path fill-rule="evenodd" clip-rule="evenodd" d="M22.2719 25.3313H3.72795C2.25461 25.3313 1.06128 24.138 1.06128 22.6647V11.998C1.06128 10.5247 2.25461 9.33133 3.72795 9.33133H22.2719C23.7453 9.33133 24.9386 10.5247 24.9386 11.998V22.6647C24.9386 24.138 23.7439 25.3313 22.2719 25.3313Z" stroke="#ABC616" stroke-width="1.5" stroke-linecap="round" stroke-linejoin="round"/>
<path opacity="0.6" d="M3.37598 9.33133V7.998C3.37598 6.52466 4.56931 5.33133 6.04264 5.33133H19.956C21.4293 5.33133 22.6226 6.52466 22.6226 7.998V9.33133M5.68798 5.33133V3.998C5.68798 2.52466 6.88131 1.33133 8.35464 1.33133H17.6466C19.12 1.33133 20.3133 2.52466 20.3133 3.998V5.33133" stroke="#ABC616" stroke-width="1.5" stroke-linecap="round" stroke-linejoin="round"/>
<path d="M12.9999 13.3313V21.3313" stroke="#ABC616" stroke-width="1.5" stroke-linecap="round" stroke-linejoin="round"/>
<path d="M16.8666 17.198H9.1333" stroke="#ABC616" stroke-width="1.5" stroke-linecap="round" stroke-linejoin="round"/>
</svg>
