<svg width="19" height="18" viewBox="0 0 19 18" fill="none" xmlns="http://www.w3.org/2000/svg">
<path d="M15.117 1.07268L1.21424 14.9754C0.665796 15.5239 0.665796 16.4131 1.21424 16.9615C1.76269 17.51 2.6519 17.51 3.20035 16.9615L17.1031 3.05879C17.6515 2.51034 17.6515 1.62113 17.1031 1.07268C16.5546 0.524237 15.6654 0.524237 15.117 1.07268Z" fill="#F64F77"/>
<path opacity="0.6" d="M17.1033 14.9755L3.20057 1.07273C2.65212 0.524282 1.76292 0.524282 1.21447 1.07273C0.66602 1.62118 0.66602 2.51039 1.21447 3.05883L15.1172 16.9616C15.6656 17.51 16.5548 17.51 17.1033 16.9616C17.6517 16.4131 17.6517 15.5239 17.1033 14.9755Z" fill="#F64F77"/>
</svg>
